HIERARCHY
ROOT hips
{
  OFFSET 0 10.6860622 2.3727825e-15
  CHANNELS 6 Xposition Yposition Zposition Yrotation Xrotation Zrotation
  JOINT leftUpperLeg
  {
    OFFSET 0.6642549969 -0.9402397400000004 0
    CHANNELS 3 Yrotation Xrotation Zrotation
    JOINT leftLowerLeg
    {
      OFFSET 0 -3.997221335632195 0
      CHANNELS 3 Yrotation Xrotation Zrotation
      JOINT leftFoot
      {
        OFFSET -0.13777839790000004 -4.6145792000000005 -0.22186036399999998
        CHANNELS 3 Yrotation Xrotation Zrotation
        JOINT leftToes
        {
          OFFSET -0.03777410834999995 -0.9130806927000008 0.85230013
          CHANNELS 3 Yrotation Xrotation Zrotation
          End Site
          {
            OFFSET -0.03777410834999995 -0.9130806927000008 0.85230013
          }
        }
      }
    }
  }
  JOINT rightUpperLeg
  {
    OFFSET -0.6642778626 -0.9402397400000004 0
    CHANNELS 3 Yrotation Xrotation Zrotation
    JOINT rightLowerLeg
    {
      OFFSET 0 -3.997221452859387 0
      CHANNELS 3 Yrotation Xrotation Zrotation
      JOINT rightFoot
      {
        OFFSET 0.1377926176 -4.6145792000000005 -0.22185782299999995
        CHANNELS 3 Yrotation Xrotation Zrotation
        JOINT rightToes
        {
          OFFSET 0.037780746850000047 -0.9130806927000008 0.85230167
          CHANNELS 3 Yrotation Xrotation Zrotation
          End Site
          {
            OFFSET 0.037780746850000047 -0.9130806927000008 0.85230167
          }
        }
      }
    }
  }
  JOINT spine
  {
    OFFSET 0 0.13988381660000015 0
    CHANNELS 3 Yrotation Xrotation Zrotation
    JOINT chest
    {
      OFFSET 0 0.6191039003973773 0
      CHANNELS 3 Yrotation Xrotation Zrotation
      JOINT upperChest
      {
        OFFSET 0 0.9855186130586943 0
        CHANNELS 3 Yrotation Xrotation Zrotation
        JOINT leftShoulder
        {
          OFFSET 0.1807663869 1.5087829790000005 0
          CHANNELS 3 Yrotation Xrotation Zrotation
          JOINT leftUpperArm
          {
            OFFSET 0.5985063006419806 0 0
            CHANNELS 3 Yrotation Xrotation Zrotation
            JOINT leftLowerArm
            {
              OFFSET 2.2993332369501065 0 0
              CHANNELS 3 Yrotation Xrotation Zrotation
              JOINT leftHand
              {
                OFFSET 2.395047042602395 0 0
                CHANNELS 3 Yrotation Xrotation Zrotation
                JOINT leftIndexProximal
                {
                  OFFSET 0.5766295810000004 0.04556643899499946 0.17265095988184
                  CHANNELS 3 Yrotation Xrotation Zrotation
                  JOINT leftIndexIntermediate
                  {
                    OFFSET 0.2957229000000008 -0.019352197700001517 -0.007932640616999987
                    CHANNELS 3 Yrotation Xrotation Zrotation
                    JOINT leftIndexDistal
                    {
                      OFFSET 0.19008243099999922 -0.012484908149998475 -0.002786250786000012
                      CHANNELS 3 Yrotation Xrotation Zrotation
                      End Site
                      {
                        OFFSET 0.19008243099999922 -0.012484908149998475 -0.002786250786000012
                      }
                    }
                  }
                }
                JOINT leftMiddleProximal
                {
                  OFFSET 0.5834975091000001 0.0524350405149987 0.02204081888183999
                  CHANNELS 3 Yrotation Xrotation Zrotation
                  JOINT leftMiddleIntermediate
                  {
                    OFFSET 0.33880573540000003 -0.019871473270000717 -0.00000971183179999946
                    CHANNELS 3 Yrotation Xrotation Zrotation
                    JOINT leftMiddleDistal
                    {
                      OFFSET 0.20676022730000088 -0.012221336379999448 0.0001471936708000235
                      CHANNELS 3 Yrotation Xrotation Zrotation
                      End Site
                      {
                        OFFSET 0.20676022730000088 -0.012221336379999448 0.0001471936708000235
                      }
                    }
                  }
                }
                JOINT leftLittleProximal
                {
                  OFFSET 0.5344154683999995 -0.012880921405001189 -0.24414037221816004
                  CHANNELS 3 Yrotation Xrotation Zrotation
                  JOINT leftLittleIntermediate
                  {
                    OFFSET 0.21758961730000093 -0.011650919939999227 0.011893592810000034
                    CHANNELS 3 Yrotation Xrotation Zrotation
                    JOINT leftLittleDistal
                    {
                      OFFSET 0.1475273964999999 -0.008152365682999818 0.006001092492999946
                      CHANNELS 3 Yrotation Xrotation Zrotation
                      End Site
                      {
                        OFFSET 0.1475273964999999 -0.008152365682999818 0.006001092492999946
                      }
                    }
                  }
                }
                JOINT leftRingProximal
                {
                  OFFSET 0.5799399463000003 0.026911854694997794 -0.12150566991816003
                  CHANNELS 3 Yrotation Xrotation Zrotation
                  JOINT leftRingIntermediate
                  {
                    OFFSET 0.26167887460000006 -0.013480186499999602 0.010996293000000053
                    CHANNELS 3 Yrotation Xrotation Zrotation
                    JOINT leftRingDistal
                    {
                      OFFSET 0.17667108799999987 -0.008990287899999228 0.0055541023999999065
                      CHANNELS 3 Yrotation Xrotation Zrotation
                      End Site
                      {
                        OFFSET 0.17667108799999987 -0.008990287899999228 0.0055541023999999065
                      }
                    }
                  }
                }
                JOINT leftThumbProximal
                {
                  OFFSET 0.11018806699999972 -0.09448718900500053 0.17047963138184
                  CHANNELS 3 Yrotation Xrotation Zrotation
                  JOINT leftThumbIntermediate
                  {
                    OFFSET 0.31062601459999983 -0.08126270900000132 0.15443142000000007
                    CHANNELS 3 Yrotation Xrotation Zrotation
                    JOINT leftThumbDistal
                    {
                      OFFSET 0.21627175790000086 -0.08833193599999878 0.018771167799999988
                      CHANNELS 3 Yrotation Xrotation Zrotation
                      End Site
                      {
                        OFFSET 0.21627175790000086 -0.08833193599999878 0.018771167799999988
                      }
                    }
                  }
                }
              }
            }
          }
        }
        JOINT neck
        {
          OFFSET 0 1.5463305265074576 0
          CHANNELS 3 Yrotation Xrotation Zrotation
          JOINT head
          {
            OFFSET 0 0.8456443600000344 0
            CHANNELS 3 Yrotation Xrotation Zrotation
            JOINT leftEye
            {
              OFFSET 0.30408573140000006 0.5104519199999995 0.1276382305
              CHANNELS 3 Yrotation Xrotation Zrotation
              End Site
              {
                OFFSET 0.30408573140000006 0.5104519199999995 0.1276382305
              }
            }
            JOINT rightEye
            {
              OFFSET -0.30409491089999996 0.5104519199999995 0.1276379445
              CHANNELS 3 Yrotation Xrotation Zrotation
              End Site
              {
                OFFSET -0.30409491089999996 0.5104519199999995 0.1276379445
              }
            }
            JOINT jaw
            {
              OFFSET -3.155239131000001e-7 -0.11984121820000082 0.60178107
              CHANNELS 3 Yrotation Xrotation Zrotation
              End Site
              {
                OFFSET -3.155239131000001e-7 -0.11984121820000082 0.60178107
              }
            }
          }
        }
        JOINT rightShoulder
        {
          OFFSET -0.1807303465 1.5087829790000005 0
          CHANNELS 3 Yrotation Xrotation Zrotation
          JOINT rightUpperArm
          {
            OFFSET -0.5985063796536958 0 0
            CHANNELS 3 Yrotation Xrotation Zrotation
            JOINT rightLowerArm
            {
              OFFSET -2.2993322059002854 0 0
              CHANNELS 3 Yrotation Xrotation Zrotation
              JOINT rightHand
              {
                OFFSET -2.395045314457259 0 0
                CHANNELS 3 Yrotation Xrotation Zrotation
                JOINT rightIndexProximal
                {
                  OFFSET -0.5764487688300002 0.0441371204405987 0.17361932004999997
                  CHANNELS 3 Yrotation Xrotation Zrotation
                  JOINT rightIndexIntermediate
                  {
                    OFFSET -0.29573011380000047 -0.01934826376999843 -0.007698921482999974
                    CHANNELS 3 Yrotation Xrotation Zrotation
                    JOINT rightIndexDistal
                    {
                      OFFSET -0.19008373999999884 -0.012503266380000655 -0.0026365778999999897
                      CHANNELS 3 Yrotation Xrotation Zrotation
                      End Site
                      {
                        OFFSET -0.19008373999999884 -0.012503266380000655 -0.0026365778999999897
                      }
                    }
                  }
                }
                JOINT rightMiddleProximal
                {
                  OFFSET -0.5834852037300005 0.05211639405060153 0.02307162440000001
                  CHANNELS 3 Yrotation Xrotation Zrotation
                  JOINT rightMiddleIntermediate
                  {
                    OFFSET -0.33880114510000003 -0.019952774050000954 0.0002455003561999819
                    CHANNELS 3 Yrotation Xrotation Zrotation
                    JOINT rightMiddleDistal
                    {
                      OFFSET -0.20675694929999955 -0.012273788999999091 0.00030209124000002766
                      CHANNELS 3 Yrotation Xrotation Zrotation
                      End Site
                      {
                        OFFSET -0.20675694929999955 -0.012273788999999091 0.00030209124000002766
                      }
                    }
                  }
                }
                JOINT rightLittleProximal
                {
                  OFFSET -0.5346811737299992 -0.011214256288399227 -0.24363941305000003
                  CHANNELS 3 Yrotation Xrotation Zrotation
                  JOINT rightLittleIntermediate
                  {
                    OFFSET -0.21757715980000092 -0.011771559690000988 0.01201554387
                    CHANNELS 3 Yrotation Xrotation Zrotation
                    JOINT rightLittleDistal
                    {
                      OFFSET -0.1475201849000004 -0.00822055339600003 0.006082065407000015
                      CHANNELS 3 Yrotation Xrotation Zrotation
                      End Site
                      {
                        OFFSET -0.1475201849000004 -0.00822055339600003 0.006082065407000015
                      }
                    }
                  }
                }
                JOINT rightRingProximal
                {
                  OFFSET -0.5800810755299999 0.027657985680600072 -0.12066365025000003
                  CHANNELS 3 Yrotation Xrotation Zrotation
                  JOINT rightRingIntermediate
                  {
                    OFFSET -0.26166445029999974 -0.013623118409999302 0.011164098990000045
                    CHANNELS 3 Yrotation Xrotation Zrotation
                    JOINT rightRingDistal
                    {
                      OFFSET -0.17666387530000027 -0.009072900100000503 0.005668185599999959
                      CHANNELS 3 Yrotation Xrotation Zrotation
                      End Site
                      {
                        OFFSET -0.17666387530000027 -0.009072900100000503 0.005668185599999959
                      }
                    }
                  }
                }
                JOINT rightThumbProximal
                {
                  OFFSET -0.10997596379000074 -0.09577489355940072 0.16989765924999997
                  CHANNELS 3 Yrotation Xrotation Zrotation
                  JOINT rightThumbIntermediate
                  {
                    OFFSET -0.31036620999999986 -0.08229339117999834 0.15440884469999996
                    CHANNELS 3 Yrotation Xrotation Zrotation
                    JOINT rightThumbDistal
                    {
                      OFFSET -0.21631306399999906 -0.08825326400000111 0.018656797720000014
                      CHANNELS 3 Yrotation Xrotation Zrotation
                      End Site
                      {
                        OFFSET -0.21631306399999906 -0.08825326400000111 0.018656797720000014
                      }
                    }
                  }
                }
              }
            }
          }
        }
      }
    }
  }
}
MOTION
Frames: 4
Frame Time: 0.03333333333333333
0.014777093194425106 -0.08987460844726591 0.008955777622759342 -5.277880704261648 -3.735654003959192 -3.3483918448194294 15.123631748521234 -10.411677215513935 7.350896117579403 2.134630990549307 12.158931145334549 4.592246660339161 0.4229206927626371 1.2664791129655908 -7.10853592867316 0.00001000959089860321 -4.928532407640174 -0.0000010025829325071322 -10.345624055350022 0.6049095457733141 3.522609182270757 -9.86475864194539 7.315317715589744 -4.418045731609754 -1.6130147867459013 -3.6924682234860216 3.333510086385585 0.000006023353860393238 -7.282874372540795 7.810581324891881e-7 1.5808038659469226 3.2950525516465703 2.8044701813397905 0.7719027571104599 2.2665383706304585 3.12264762119589 0 0 0 -17.60141382681891 1.0179245167858475 -12.413985267317644 -20.71783742332613 3.227159167746747 -70.88992260032235 -1.459235039663598 0.00022634803555832307 0.01884865784516498 -1.72687300913876 -33.22266043089928 -5.222222839981552 -1.0672881913995378 0.013496443085835426 -7.580749749860176 1.5317893512967542 0.23424441805000593 -17.389678464534335 0.7174113629898455 0.05044716007273521 -8.0472182210349 2.465373757190709 -0.10316398001847195 -15.733207843768916 1.5343287737834876 0.23502941613930495 -17.419485688245057 1.620121345791695 0.26278799402430464 -18.427197416622715 5.218703361630321 0.8455042654436079 -27.112918211200462 1.5343632175844992 0.23504526444595975 -17.41986971527155 1.4573438397688723 0.2115551581943199 -16.51987504489324 3.374715527938161 0.08815157011310673 -21.170634978682234 1.830547116508532 0.3380339994678421 -20.924804694532835 1.5735133610373158 0.24750481392712448 -17.878956769525974 2.2227078617582205 -0.6644791230131366 4.778483053283899 26.125338785981512 10.712322164453008 21.92894228634823 3.7618548142725903 -13.793007017879109 8.091967656311281 -0.07343648673002201 5.6262809045505415 0.4484650005520982 1.3866255523872684 -7.560943355020449 -0.280820016117772 0 0 0 0 0 0 0 0 0 15.533590696784035 1.162008920137906 14.83119396497476 28.797000666220004 11.307941196033635 64.7335624149036 6.6931784066855995 0.005039467322090465 -0.08625395587878126 -0.454595558472366 -20.18361131018201 6.945677721325616 1.3501158354306335 0.03350797282816776 6.807740409143573 -1.1745289613204986 0.17992963657319105 17.419195962517243 -0.5501116890965684 0.038765555345028034 8.060557442203875 -2.013406275493378 -0.16089911115766192 15.030867819206506 -1.176475152346171 0.1805287618533341 17.449033658558367 -1.2422580481012317 0.20186876632160453 18.4585506878024 -4.555318720501782 0.6712322376316606 26.474967705946604 -1.176518792538606 0.18056486064953892 17.449409538094173 -1.1174405916689083 0.16249991643901218 16.547795322938132 -2.816947036257241 -0.015201885179485265 20.487455949711656 -1.4035685931802657 0.2596535449488982 20.96071649316602 -1.20651329909908 0.19011551612080635 17.909304764790324 -0.22899815779189922 -1.667239526878455 -4.2097788552125674 -30.656207580773398 11.051680138983896 -22.2034871777876 -3.8632145969190255 -15.532369923732235 -11.625217202189742
0.014837734401226044 -0.08986984007568388 0.009014515206217766 -5.275473925186263 -3.7259717555626475 -3.349328986240268 15.116055137082657 -10.42258032343904 7.348985680096351 2.136845532979548 12.161670034454776 4.593415098129831 0.42274806554460154 1.268591652453492 -7.10921806320011 0.000009340252655082238 -4.930322133569737 -0.0000031400864622093976 -10.34476234148562 0.5978338804623342 3.5245798690697 -9.86381522415699 7.310832213444054 -4.4164435083597695 -1.6145453170981787 -3.690061137700929 3.3331561625811577 0.000018644549916041292 -7.280989404979517 -0.0000028205062423129955 1.5795871638567216 3.294218316632615 2.8039550694315585 0.7708659068230744 2.265986828354469 3.1223051571580513 0 0 0 -17.602564266654895 1.0179441566792136 -12.412219196507182 -20.719786263303334 3.229431891297108 -70.89182654095808 -1.4584938960566483 0.0002376697338229441 0.018839529804710663 -1.7250252222070879 -33.22198684295473 -5.223193003780837 -1.0672881913995378 0.013496443085835426 -7.580749749860176 1.5317893512967542 0.23424441805000593 -17.389678464534335 0.7174113629898455 0.05044716007273521 -8.0472182210349 2.465373757190709 -0.10316398001847195 -15.733207843768916 1.5343287737834876 0.23502941613930495 -17.419485688245057 1.620121345791695 0.26278799402430464 -18.427197416622715 5.218703361630321 0.8455042654436079 -27.112918211200462 1.5343632175844992 0.23504526444595975 -17.41986971527155 1.4573438397688723 0.2115551581943199 -16.51987504489324 3.374715527938161 0.08815157011310673 -21.170634978682234 1.830547116508532 0.3380339994678421 -20.924804694532835 1.5735133610373158 0.24750481392712448 -17.878956769525974 2.2227078617582205 -0.6644791230131366 4.778483053283899 26.125338785981512 10.712322164453008 21.92894228634823 3.7618548142725903 -13.793007017879109 8.091967656311281 -0.07335987149184496 5.626386427069583 0.44872121212062466 1.3866370291205559 -7.5602707099862965 -0.2812893790938841 0 0 0 0 0 0 0 0 0 15.53457530913881 1.1621031747891553 14.828470632392555 28.797574472155112 11.308969465815574 64.73276622173573 6.692125756673983 0.005044535352489717 -0.0862609928332765 -0.4548103802842262 -20.181431845734654 6.946311591950202 1.3501158354306335 0.03350797282816776 6.807740409143573 -1.1745289613204986 0.17992963657319105 17.419195962517243 -0.5501116890965684 0.038765555345028034 8.060557442203875 -2.013406275493378 -0.16089911115766192 15.030867819206506 -1.176475152346171 0.1805287618533341 17.449033658558367 -1.2422580481012317 0.20186876632160453 18.4585506878024 -4.555318720501782 0.6712322376316606 26.474967705946604 -1.176518792538606 0.18056486064953892 17.449409538094173 -1.1174405916689083 0.16249991643901218 16.547795322938132 -2.816947036257241 -0.015201885179485265 20.487455949711656 -1.4035685931802657 0.2596535449488982 20.96071649316602 -1.20651329909908 0.19011551612080635 17.909304764790324 -0.22899815779189922 -1.667239526878455 -4.2097788552125674 -30.656207580773398 11.051680138983896 -22.2034871777876 -3.8632145969190255 -15.532369923732235 -11.625217202189742
0.0149251539260149 -0.08972964995117216 0.009400359354913235 -5.280391001613416 -3.711020157077157 -3.351529929993211 15.107816050579233 -10.433750328257405 7.348829191250062 2.144730257045179 12.159465645715144 4.594129183002341 0.42212289317163726 1.2735460393515918 -7.107891867341562 -0.00002371222791789914 -4.93681480442298 0.000007208715814344794 -10.339318058181972 0.5963298765191183 3.5304241911502827 -9.864012696953505 7.2858378330010956 -4.4147182190854934 -1.6155946823134364 -3.677974474370891 3.33289625149288 0.000006303385694398543 -7.273428096457269 -0.000001800659237984893 1.5703282862322403 3.2881616887611336 2.800847128965432 0.763352722002117 2.2620166700493196 3.119819857351677 0 0 0 -17.610604918185484 1.0181102418692016 -12.399385176571236 -20.733730719110323 3.2458133527499684 -70.90575248765877 -1.4531227763217376 0.0002413244050888077 0.01879942912569945 -1.711606190697592 -33.21705552069482 -5.230350724330283 -1.0672881913995378 0.013496443085835426 -7.580749749860176 1.5317893512967542 0.23424441805000593 -17.389678464534335 0.7174113629898455 0.05044716007273521 -8.0472182210349 2.465373757190709 -0.10316398001847195 -15.733207843768916 1.5343287737834876 0.23502941613930495 -17.419485688245057 1.620121345791695 0.26278799402430464 -18.427197416622715 5.218703361630321 0.8455042654436079 -27.112918211200462 1.5343632175844992 0.23504526444595975 -17.41986971527155 1.4573438397688723 0.2115551581943199 -16.51987504489324 3.374715527938161 0.08815157011310673 -21.170634978682234 1.830547116508532 0.3380339994678421 -20.924804694532835 1.5735133610373158 0.24750481392712448 -17.878956769525974 2.2227078617582205 -0.6644791230131366 4.778483053283899 26.125338785981512 10.712322164453008 21.92894228634823 3.7618548142725903 -13.793007017879109 8.091967656311281 -0.07278971692972011 5.627114790345154 0.45059986704084243 1.3866903408305036 -7.55562681793174 -0.2844954837312795 0 0 0 0 0 0 0 0 0 15.54125037922221 1.1628196383338818 14.809092338543309 28.801630435597296 11.31637033096762 64.72669573798262 6.684821573255572 0.0050287734736245565 -0.08615621224706835 -0.45617082136938836 -20.165954522188834 6.950974543433718 1.3501158354306335 0.03350797282816776 6.807740409143573 -1.1745289613204986 0.17992963657319105 17.419195962517243 -0.5501116890965684 0.038765555345028034 8.060557442203875 -2.013406275493378 -0.16089911115766192 15.030867819206506 -1.176475152346171 0.1805287618533341 17.449033658558367 -1.2422580481012317 0.20186876632160453 18.4585506878024 -4.555318720501782 0.6712322376316606 26.474967705946604 -1.176518792538606 0.18056486064953892 17.449409538094173 -1.1174405916689083 0.16249991643901218 16.547795322938132 -2.816947036257241 -0.015201885179485265 20.487455949711656 -1.4035685931802657 0.2596535449488982 20.96071649316602 -1.20651329909908 0.19011551612080635 17.909304764790324 -0.22899815779189922 -1.667239526878455 -4.2097788552125674 -30.656207580773398 11.051680138983896 -22.2034871777876 -3.8632145969190255 -15.532369923732235 -11.625217202189742
0.01505295094102621 -0.0895064901611331 0.010106260888278484 -5.291242393376016 -3.6994059030301365 -3.351477814221718 15.100250373348592 -10.436060425910993 7.347866903858153 2.1608815688139824 12.153237734901008 4.59677273882008 0.42145827596350927 1.2786289607067305 -7.107290185470417 -0.000004734800464492633 -4.944339320865408 -0.0000033493249259091674 -10.337649448814885 0.6016573416768854 3.5317249653587925 -9.864384507925012 7.256052631606255 -4.410933987133569 -1.6104588869153769 -3.664878884750938 3.332228478113378 -0.000006023655536433232 -7.265957287223629 -7.8102809078853e-7 1.5541557059312074 3.277733231926819 2.7944793403485555 0.7503323348680958 2.2551862972131294 3.1155068326209348 0 0 0 -17.62396886926298 1.0184934333106228 -12.377343343785983 -20.757299474677183 3.27425781646334 -70.92976405008865 -1.444051106776989 0.00023106400937341007 0.018638227664241017 -1.6882539540463932 -33.20854474485722 -5.243531980259538 -1.0672881913995378 0.013496443085835426 -7.580749749860176 1.5317893512967542 0.23424441805000593 -17.389678464534335 0.7174113629898455 0.05044716007273521 -8.0472182210349 2.465373757190709 -0.10316398001847195 -15.733207843768916 1.5343287737834876 0.23502941613930495 -17.419485688245057 1.620121345791695 0.26278799402430464 -18.427197416622715 5.218703361630321 0.8455042654436079 -27.112918211200462 1.5343632175844992 0.23504526444595975 -17.41986971527155 1.4573438397688723 0.2115551581943199 -16.51987504489324 3.374715527938161 0.08815157011310673 -21.170634978682234 1.830547116508532 0.3380339994678421 -20.924804694532835 1.5735133610373158 0.24750481392712448 -17.878956769525974 2.2227078617582205 -0.6644791230131366 4.778483053283899 26.125338785981512 10.712322164453008 21.92894228634823 3.7618548142725903 -13.793007017879109 8.091967656311281 -0.07177185813598386 5.628277256591299 0.45390280435597713 1.3867457264769865 -7.548624040240026 -0.28951873613477974 0 0 0 0 0 0 0 0 0 15.551628589074072 1.1641623675080428 14.776697353272455 28.808724606858707 11.328930472368185 64.715852516277 6.672816238785898 0.0050143143499622915 -0.08600975688093813 -0.4580670012417961 -20.140224231741836 6.958587580248907 1.3501158354306335 0.03350797282816776 6.807740409143573 -1.1745289613204986 0.17992963657319105 17.419195962517243 -0.5501116890965684 0.038765555345028034 8.060557442203875 -2.013406275493378 -0.16089911115766192 15.030867819206506 -1.176475152346171 0.1805287618533341 17.449033658558367 -1.2422580481012317 0.20186876632160453 18.4585506878024 -4.555318720501782 0.6712322376316606 26.474967705946604 -1.176518792538606 0.18056486064953892 17.449409538094173 -1.1174405916689083 0.16249991643901218 16.547795322938132 -2.816947036257241 -0.015201885179485265 20.487455949711656 -1.4035685931802657 0.2596535449488982 20.96071649316602 -1.20651329909908 0.19011551612080635 17.909304764790324 -0.22899815779189922 -1.667239526878455 -4.2097788552125674 -30.656207580773398 11.051680138983896 -22.2034871777876 -3.8632145969190255 -15.532369923732235 -11.625217202189742
